<?xml version="1.0" standalone="no"?>
<!DOCTYPE svg PUBLIC "-//W3C//DTD SVG 20010904//EN"
 "http://www.w3.org/TR/2001/REC-SVG-20010904/DTD/svg10.dtd">
<svg version="1.0" xmlns="http://www.w3.org/2000/svg"
 width="140.000000pt" height="140.000000pt" viewBox="0 0 140.000000 140.000000"
 preserveAspectRatio="xMidYMid meet">
<metadata>
Created by potrace 1.14, written by Peter Selinger 2001-2017
</metadata>
<g transform="translate(0.000000,140.000000) scale(0.100000,-0.100000)"
fill="#000000" stroke="none">
<path d="M620 1319 c-162 -25 -306 -146 -360 -304 -99 -287 113 -597 410 -599
85 -1 161 23 185 57 23 33 19 80 -9 107 -51 47 -170 44 -182 -6 -9 -34 2 -41
26 -19 16 14 22 15 35 5 18 -15 20 -44 3 -58 -61 -48 -181 -10 -223 71 -48 93
41 245 187 319 109 55 353 56 437 2 l24 -16 -7 52 c-9 67 -41 153 -71 188 -31
38 -82 51 -168 47 -81 -4 -100 -8 -166 -30 -151 -50 -320 -201 -354 -314 -42
-144 10 -278 133 -341 82 -42 203 -37 245 10 22 24 13 70 -15 77 -11 3 -20 9
-20 13 0 11 37 0 48 -14 75 -95 -109 -166 -264 -101 -46 19 -122 91 -145 139
-24 48 -31 143 -17 209 20 97 97 204 193 271 119 84 217 114 365 112 l99 -1
-20 21 c-68 72 -246 122 -369 103z m85 -741 c-11 -6 -23 -16 -27 -22 -5 -8 -8
-7 -8 1 0 12 28 32 45 32 6 0 1 -5 -10 -11z"/>
<path d="M783 875 c-29 -8 -74 -25 -100 -39 -51 -25 -123 -87 -123 -105 0 -6
-4 -11 -8 -11 -9 0 -31 -58 -36 -95 -10 -65 58 -130 135 -129 51 1 79 16 79
42 0 13 -3 12 -14 -4 -21 -29 -87 -20 -102 14 -21 48 -15 79 23 117 61 61 177
84 288 56 73 -18 125 -68 125 -121 0 -23 2 -22 25 13 48 70 72 140 66 198 0 9
-24 29 -53 44 -46 25 -65 29 -153 32 -67 2 -117 -2 -152 -12z"/>
<path d="M219 298 c-1 -2 -3 -33 -4 -70 -2 -55 1 -68 12 -68 10 0 14 7 11 18
-3 10 1 23 9 30 11 11 17 9 33 -10 11 -13 19 -26 20 -30 0 -5 7 -8 15 -8 12 0
9 9 -11 40 l-26 39 21 27 c33 42 14 43 -23 1 -17 -20 -34 -37 -38 -37 -3 0 -4
13 -2 30 2 16 -1 32 -6 35 -6 3 -11 5 -11 3z"/>
<path d="M372 284 c-25 -17 -30 -77 -9 -105 17 -22 54 -30 85 -18 34 13 42 26
42 71 0 42 -27 68 -70 68 -14 0 -36 -7 -48 -16z m89 -26 c13 -24 3 -75 -17
-82 -34 -13 -63 5 -70 42 -6 29 -3 39 15 53 25 20 57 15 72 -13z"/>
<path d="M537 290 c-11 -28 -27 -95 -27 -112 0 -34 19 -18 28 25 l10 42 17
-42 c10 -24 21 -43 25 -43 3 0 12 16 20 35 8 19 17 35 21 35 5 0 11 -16 15
-35 3 -19 11 -35 16 -35 11 0 7 30 -13 103 -12 44 -21 40 -39 -15 -6 -21 -15
-38 -19 -38 -4 0 -17 21 -28 48 -13 31 -22 42 -26 32z"/>
<path d="M699 283 c-6 -91 -4 -123 8 -123 9 0 13 20 13 70 0 40 -4 70 -10 70
-5 0 -10 -8 -11 -17z"/>
<path d="M760 232 c0 -41 4 -72 10 -72 11 0 13 10 12 58 -1 17 2 32 6 32 7 0
52 -50 75 -84 11 -16 23 8 21 41 -1 15 -3 43 -3 61 -1 51 -21 37 -21 -15 l0
-47 -50 49 -50 49 0 -72z"/>
<path d="M918 273 c-6 -50 3 -113 16 -113 8 0 11 11 8 30 -2 17 0 30 4 31 42
4 55 7 61 12 6 7 -18 11 -49 8 -12 -2 -18 5 -18 18 0 18 6 21 46 21 61 0 48
16 -15 19 -47 1 -50 0 -53 -26z"/>
<path d="M1060 280 c-42 -42 -10 -129 45 -125 56 5 69 17 80 75 11 55 -83 92
-125 50z m88 -13 c13 -10 16 -55 4 -74 -12 -19 -57 -26 -69 -11 -24 28 -26 65
-4 87 20 20 41 20 69 -2z"/>
</g>
</svg>
